<?xml version="1.0" standalone="no"?>
<!DOCTYPE svg PUBLIC "-//W3C//DTD SVG 20010904//EN"
 "http://www.w3.org/TR/2001/REC-SVG-20010904/DTD/svg10.dtd">
<svg version="1.0" xmlns="http://www.w3.org/2000/svg"
 width="512.000000pt" height="512.000000pt" viewBox="0 0 512.000000 512.000000"
 preserveAspectRatio="xMidYMid meet">

<g transform="translate(0.000000,512.000000) scale(0.100000,-0.100000)"
fill="#000000" stroke="none">
<path d="M905 4855 c-50 -49 -15 -135 55 -135 41 0 80 39 80 80 0 41 -39 80
-80 80 -19 0 -40 -9 -55 -25z"/>
<path d="M1586 4870 c-62 -16 -153 -69 -195 -115 -38 -41 -41 -42 -85 -38 -25
3 -66 0 -91 -7 -52 -15 -125 -74 -148 -121 l-15 -32 -94 -1 c-87 -1 -99 -4
-170 -38 -127 -63 -210 -181 -224 -316 -5 -44 -11 -62 -21 -62 -26 0 -118
-103 -131 -146 -24 -81 -11 -151 38 -214 22 -29 28 -49 32 -111 10 -126 63
-212 166 -267 39 -21 81 -34 120 -38 56 -6 62 -5 86 19 56 56 24 124 -64 138
-58 9 -91 29 -124 73 -21 28 -23 51 -14 175 2 36 -1 46 -21 60 -13 9 -34 26
-47 38 -52 48 -13 133 61 133 25 0 44 8 61 25 24 24 25 30 19 98 -7 82 3 123
42 179 37 54 100 89 172 95 49 5 68 1 116 -21 65 -29 74 -31 108 -15 34 15 48
51 41 103 -6 39 -3 48 19 70 32 32 66 33 117 4 48 -28 86 -18 115 32 34 58
107 124 151 138 96 28 172 6 256 -74 53 -51 62 -56 91 -50 19 3 40 17 52 33
60 84 116 113 190 99 47 -9 101 -58 116 -104 22 -70 66 -95 119 -67 43 22 77
19 107 -11 23 -23 25 -31 19 -75 -6 -46 -5 -52 23 -79 86 -86 172 29 129 174
-16 55 -99 138 -154 154 -23 7 -59 12 -81 12 -33 0 -41 5 -57 31 -20 33 -82
82 -136 106 -23 11 -65 16 -120 17 -87 0 -134 -15 -197 -64 -22 -17 -25 -17
-101 22 -67 34 -88 40 -157 43 -44 3 -97 0 -119 -5z"/>
<path d="M3305 4775 c-16 -15 -25 -36 -25 -55 0 -19 9 -40 25 -55 15 -16 36
-25 55 -25 19 0 40 9 55 25 16 15 25 36 25 55 0 19 -9 40 -25 55 -15 16 -36
25 -55 25 -19 0 -40 -9 -55 -25z"/>
<path d="M3827 4630 c-45 -12 -111 -44 -154 -76 -30 -23 -33 -23 -73 -9 -151
53 -320 -66 -320 -224 0 -71 85 -106 135 -56 16 15 25 36 25 55 0 40 39 80 79
80 19 0 44 -12 71 -35 61 -51 76 -48 162 38 106 105 245 104 341 -3 73 -81 84
-167 36 -274 -20 -46 -20 -51 -6 -82 13 -26 26 -36 59 -44 56 -15 107 -54 124
-96 8 -18 14 -60 14 -92 0 -94 43 -118 139 -77 106 44 187 29 266 -50 116
-115 95 -282 -46 -371 -21 -13 -46 -36 -56 -50 -16 -24 -16 -29 2 -79 39 -115
-15 -205 -135 -224 -88 -14 -120 -82 -64 -138 24 -24 30 -25 85 -19 110 11
197 70 249 168 30 56 34 72 36 144 l1 81 41 38 c25 22 57 68 80 113 35 72 37
81 37 171 0 87 -3 102 -32 163 -44 93 -100 151 -191 196 -71 35 -82 37 -169
37 l-92 0 -16 41 c-20 53 -61 107 -105 139 l-35 26 0 107 c0 105 -1 110 -37
184 -68 136 -188 217 -336 224 -42 2 -94 -1 -115 -6z"/>
<path d="M2105 4455 c-50 -49 -15 -135 55 -135 41 0 80 39 80 80 0 41 -39 80
-80 80 -19 0 -40 -9 -55 -25z"/>
<path d="M4505 4215 c-16 -15 -25 -36 -25 -55 0 -19 9 -40 25 -55 15 -16 36
-25 55 -25 19 0 40 9 55 25 16 15 25 36 25 55 0 19 -9 40 -25 55 -15 16 -36
25 -55 25 -19 0 -40 -9 -55 -25z"/>
<path d="M905 4135 c-50 -49 -15 -135 55 -135 41 0 80 39 80 80 0 41 -39 80
-80 80 -19 0 -40 -9 -55 -25z"/>
<path d="M1465 4135 c-50 -49 -15 -135 55 -135 41 0 80 39 80 80 0 41 -39 80
-80 80 -19 0 -40 -9 -55 -25z"/>
<path d="M2338 4145 c-758 -104 -1344 -693 -1443 -1452 -99 -752 325 -1479
1031 -1767 822 -336 1759 26 2145 828 66 137 99 231 128 361 165 749 -194
1513 -876 1861 -300 153 -655 214 -985 169z m492 -170 c79 -15 195 -46 247
-66 21 -8 22 -10 8 -43 -29 -69 -15 -146 34 -190 l22 -20 -35 -35 c-49 -52
-66 -92 -66 -155 l0 -56 -49 -24 c-87 -45 -119 -104 -108 -203 5 -49 27 -85
71 -117 25 -19 44 -21 199 -24 l172 -3 55 -53 c30 -29 66 -61 80 -70 40 -26
111 -21 180 14 65 33 120 40 120 15 0 -8 -21 -26 -47 -39 -77 -39 -113 -89
-113 -157 l0 -29 -80 0 c-87 0 -123 -12 -173 -59 -59 -54 -67 -85 -67 -258 0
-202 1 -205 138 -296 l102 -67 0 -138 c0 -177 4 -185 136 -275 54 -37 101 -72
102 -78 7 -20 -251 -264 -347 -328 -176 -116 -378 -198 -586 -237 -138 -26
-392 -26 -530 0 -319 59 -575 195 -806 425 -231 232 -366 487 -425 806 -26
135 -26 402 0 530 35 179 97 358 122 348 11 -4 14 -32 14 -147 0 -183 3 -189
138 -279 l102 -67 0 -44 c0 -31 -6 -48 -21 -62 -46 -42 -59 -86 -59 -205 0
-123 13 -165 60 -199 15 -10 96 -46 181 -79 l154 -59 5 -154 5 -153 38 -72
c30 -58 37 -83 37 -128 0 -110 42 -159 173 -201 158 -50 214 -18 272 156 22
66 34 84 91 140 85 84 104 121 104 202 l0 63 101 100 c134 133 142 149 137
286 -3 116 -12 139 -72 183 -23 18 -45 22 -137 24 -108 4 -109 4 -109 28 0 76
-56 132 -164 164 l-74 22 -5 45 c-5 49 -27 85 -71 117 -22 17 -46 22 -120 24
l-93 4 -57 57 -57 58 3 73 3 74 93 30 c85 28 109 42 257 153 90 67 172 134
181 149 22 33 30 130 15 177 -15 46 -70 94 -116 103 l-35 6 0 82 c0 68 -4 88
-25 124 l-24 43 24 9 c25 9 211 46 275 54 72 9 338 -3 420 -19z m-830 -247 c0
-44 6 -93 14 -111 17 -43 68 -85 111 -93 63 -11 46 -35 -102 -147 -124 -93
-148 -107 -236 -136 -162 -54 -187 -88 -187 -256 0 -129 10 -152 107 -246 90
-88 113 -99 213 -99 79 0 80 0 80 -25 0 -77 56 -133 164 -165 l74 -22 5 -45
c5 -49 27 -85 71 -117 23 -18 45 -22 137 -24 l109 -4 0 -62 0 -61 -101 -100
c-120 -120 -139 -151 -139 -237 l0 -64 -66 -64 c-73 -73 -92 -105 -120 -203
-14 -49 -23 -66 -33 -62 -7 3 -33 10 -57 16 l-44 11 0 62 c0 51 -6 74 -37 136
l-38 75 -5 161 c-7 217 -1 209 -230 299 l-170 67 0 77 c0 67 3 81 21 97 42 37
59 88 59 171 0 111 -14 133 -138 216 l-102 67 0 135 c0 158 -8 185 -71 237
l-44 37 60 88 c75 111 234 276 344 359 47 35 130 88 185 119 l101 55 32 -32
c32 -31 33 -35 33 -110z m1337 57 c272 -165 492 -414 613 -694 90 -208 124
-372 125 -606 0 -253 -45 -456 -150 -670 -69 -143 -57 -138 -159 -72 l-86 57
0 137 c0 179 -3 186 -138 276 l-102 67 0 124 c0 154 -1 153 127 158 73 2 97 7
119 24 44 33 66 68 71 118 5 44 9 49 53 71 86 44 118 104 107 202 -5 49 -27
85 -71 117 -20 15 -46 22 -102 24 -69 4 -81 2 -140 -29 l-65 -32 -57 55 c-87
85 -96 88 -282 88 -135 0 -160 2 -160 15 0 8 21 26 48 39 83 42 112 88 112
180 0 47 3 55 40 91 79 77 88 164 24 234 -22 25 -32 45 -28 55 9 23 19 21 101
-29z"/>
<path d="M3625 4135 c-16 -15 -25 -36 -25 -55 0 -19 9 -40 25 -55 15 -16 36
-25 55 -25 19 0 40 9 55 25 16 15 25 36 25 55 0 19 -9 40 -25 55 -15 16 -36
25 -55 25 -19 0 -40 -9 -55 -25z"/>
<path d="M4345 3495 c-16 -15 -25 -36 -25 -55 0 -19 9 -40 25 -55 15 -16 36
-25 55 -25 19 0 40 9 55 25 16 15 25 36 25 55 0 19 -9 40 -25 55 -15 16 -36
25 -55 25 -19 0 -40 -9 -55 -25z"/>
<path d="M505 3255 c-50 -49 -15 -135 55 -135 41 0 80 39 80 80 0 41 -39 80
-80 80 -19 0 -40 -9 -55 -25z"/>
<path d="M645 2391 c-90 -22 -173 -90 -215 -176 -20 -41 -25 -65 -24 -135 0
-50 5 -94 13 -108 12 -22 9 -27 -48 -80 -42 -40 -70 -77 -93 -127 -30 -64 -33
-78 -33 -165 0 -86 3 -102 31 -160 17 -36 46 -83 64 -103 l33 -38 -24 -51
c-19 -41 -24 -68 -24 -132 1 -99 23 -154 90 -221 68 -69 121 -90 228 -90 73 0
87 -3 87 -16 0 -9 16 -48 35 -86 43 -86 103 -144 193 -186 61 -29 76 -32 162
-32 83 0 103 4 155 28 32 15 74 39 91 52 31 24 34 24 74 10 24 -8 52 -15 64
-15 17 0 28 -12 44 -47 32 -72 73 -116 144 -154 58 -31 70 -34 148 -34 77 1
91 4 148 34 98 53 157 140 168 250 6 55 5 61 -19 85 -31 31 -75 34 -107 8 -17
-13 -25 -35 -31 -77 -13 -99 -67 -150 -158 -150 -47 0 -64 5 -93 27 -45 34
-68 83 -68 145 0 66 -31 98 -84 89 -20 -3 -51 -9 -70 -12 -29 -5 -39 -1 -67
25 -60 58 -85 54 -171 -32 -104 -104 -231 -105 -334 -2 -60 60 -80 117 -70
201 6 52 5 57 -23 85 -36 35 -70 37 -108 5 -43 -36 -68 -46 -113 -46 -86 0
-148 54 -158 135 -7 63 3 88 53 145 68 77 63 93 -51 185 -54 43 -88 123 -81
190 9 93 67 173 148 205 84 33 102 88 49 155 -86 109 -16 265 120 265 70 0
105 86 55 135 -25 26 -67 31 -130 16z"/>
<path d="M4665 2375 c-50 -49 -15 -135 55 -135 41 0 80 39 80 80 0 41 -39 80
-80 80 -19 0 -40 -9 -55 -25z"/>
<path d="M185 2215 c-50 -49 -15 -135 55 -135 41 0 80 39 80 80 0 41 -39 80
-80 80 -19 0 -40 -9 -55 -25z"/>
<path d="M4426 1977 c-51 -51 -17 -137 55 -137 91 0 194 -73 223 -157 29 -85
18 -152 -37 -230 -41 -57 -39 -91 6 -144 20 -23 40 -57 43 -76 25 -133 -111
-236 -229 -173 -44 24 -85 26 -114 5 -35 -24 -37 -64 -7 -129 74 -162 14 -342
-141 -421 -54 -28 -67 -30 -164 -30 -58 0 -112 -4 -119 -8 -7 -5 -23 -30 -37
-57 -34 -68 -76 -95 -145 -95 -69 0 -111 27 -144 94 -36 70 -44 74 -130 66
-101 -9 -148 6 -211 70 -52 51 -75 102 -75 164 0 72 -86 106 -137 55 -24 -24
-25 -30 -20 -92 18 -192 176 -344 372 -359 41 -3 75 -9 75 -13 0 -19 91 -96
140 -119 44 -21 70 -26 130 -26 107 0 199 44 251 119 21 31 29 36 65 36 272 0
503 244 482 506 l-4 52 47 5 c102 12 201 85 249 182 20 41 25 65 24 135 0 72
-4 93 -27 137 l-27 52 28 58 c23 50 27 71 27 154 0 90 -2 99 -37 171 -64 129
-182 212 -321 225 -61 5 -67 4 -91 -20z"/>
<path d="M745 1735 c-16 -15 -25 -36 -25 -55 0 -19 9 -40 25 -55 15 -16 36
-25 55 -25 19 0 40 9 55 25 16 15 25 36 25 55 0 19 -9 40 -25 55 -15 16 -36
25 -55 25 -19 0 -40 -9 -55 -25z"/>
<path d="M4265 1415 c-50 -49 -15 -135 55 -135 41 0 80 39 80 80 0 41 -39 80
-80 80 -19 0 -40 -9 -55 -25z"/>
<path d="M1145 1095 c-16 -15 -25 -36 -25 -55 0 -19 9 -40 25 -55 15 -16 36
-25 55 -25 19 0 40 9 55 25 16 15 25 36 25 55 0 19 -9 40 -25 55 -15 16 -36
25 -55 25 -19 0 -40 -9 -55 -25z"/>
<path d="M3785 1095 c-50 -49 -15 -135 55 -135 41 0 80 39 80 80 0 41 -39 80
-80 80 -19 0 -40 -9 -55 -25z"/>
<path d="M4665 775 c-50 -49 -15 -135 55 -135 41 0 80 39 80 80 0 41 -39 80
-80 80 -19 0 -40 -9 -55 -25z"/>
<path d="M505 695 c-16 -15 -25 -36 -25 -55 0 -19 9 -40 25 -55 15 -16 36 -25
55 -25 19 0 40 9 55 25 50 49 15 135 -55 135 -19 0 -40 -9 -55 -25z"/>
<path d="M2825 535 c-50 -49 -15 -135 55 -135 41 0 80 39 80 80 0 41 -39 80
-80 80 -19 0 -40 -9 -55 -25z"/>
<path d="M1385 375 c-50 -49 -15 -135 55 -135 41 0 80 39 80 80 0 41 -39 80
-80 80 -19 0 -40 -9 -55 -25z"/>
</g>
</svg>
